<?xml version="1.0" encoding="UTF-8" standalone="no"?><!DOCTYPE svg PUBLIC "-//W3C//DTD SVG 1.1//EN" "http://www.w3.org/Graphics/SVG/1.1/DTD/svg11.dtd"><svg id="logo" width="100%" height="100%" viewBox="0 0 800 800" version="1.1" xmlns="http://www.w3.org/2000/svg" xmlns:xlink="http://www.w3.org/1999/xlink" xml:space="preserve" style="fill-rule:evenodd;clip-rule:evenodd;stroke-linejoin:round;stroke-miterlimit:1.41421;"><path d="M353.23,781.003c-4.563,1.014 -9.379,2.155 -14.449,3.422c-5.07,1.268 -11.914,1.902 -20.533,1.902c-19.266,0 -34.983,-4.563 -47.15,-13.689c-12.168,-9.126 -21.674,-20.913 -28.519,-35.363c-6.844,-14.449 -11.66,-30.926 -14.449,-49.431c-2.788,-18.505 -4.182,-36.884 -4.182,-55.135c0,-14.703 0.507,-29.026 1.521,-42.968c1.014,-13.942 2.661,-28.518 4.943,-43.728c2.281,-15.209 5.196,-31.687 8.745,-49.431c3.549,-17.745 8.112,-37.518 13.689,-59.318c-11.154,-4.563 -22.561,-11.661 -34.222,-21.294c-11.661,-9.633 -22.181,-20.786 -31.56,-33.461c-9.379,-12.675 -16.984,-25.983 -22.815,-39.926c-5.83,-13.942 -8.745,-27.25 -8.745,-39.925c0,-28.392 4.69,-57.544 14.069,-87.456c9.379,-29.912 20.66,-57.29 33.841,-82.132c13.182,-24.843 26.617,-45.123 40.306,-60.839c13.689,-15.717 25.096,-23.575 34.222,-23.575c7.605,0 14.956,3.549 22.054,10.646c7.098,7.098 10.647,16.224 10.647,27.378c0,11.154 -2.662,23.955 -7.985,38.404c-5.324,14.45 -11.154,29.913 -17.491,46.39c-6.338,16.477 -12.168,33.715 -17.491,51.713c-5.324,17.998 -7.986,35.87 -7.986,53.614c0,22.308 9.38,41.574 28.138,57.797c5.577,-18.251 12.548,-38.911 20.914,-61.979c8.365,-23.068 17.871,-46.517 28.518,-70.345c10.647,-23.829 22.561,-47.024 35.743,-69.585c13.182,-22.561 27.377,-42.714 42.587,-60.458c15.21,-17.745 31.18,-31.941 47.911,-42.587c16.73,-10.647 34.221,-15.971 52.473,-15.971c23.829,0 43.855,4.944 60.078,14.83c16.224,9.886 29.406,22.181 39.546,36.883c10.139,14.703 17.491,30.673 22.054,47.911c4.563,17.238 6.844,33.461 6.844,48.671c0,33.461 -6.844,66.669 -20.533,99.624c-13.689,32.954 -32.447,62.993 -56.276,90.117c-23.828,27.124 -51.713,50.319 -83.653,69.585c-31.941,19.265 -66.163,32.193 -102.666,38.784c-4.056,24.336 -7.731,47.404 -11.027,69.205c-3.295,21.8 -6.084,43.854 -8.365,66.162c-2.282,22.307 -4.056,45.756 -5.324,70.345c-1.267,24.589 -1.901,51.839 -1.901,81.752l0,23.575l-1.521,9.886Zm46.39,-438.039c23.828,-10.647 45.629,-24.463 65.402,-41.447c19.772,-16.984 38.531,-36.883 56.275,-59.698c21.801,-27.884 32.701,-57.29 32.701,-88.216c0,-5.07 -0.38,-10.52 -1.14,-16.351c-0.761,-5.83 -2.282,-11.28 -4.563,-16.35c-2.282,-5.07 -5.45,-9.38 -9.506,-12.928c-4.056,-3.549 -9.38,-5.324 -15.971,-5.324c-5.576,0 -12.421,5.197 -20.533,15.59c-8.112,10.393 -16.604,23.702 -25.476,39.926c-8.872,16.223 -17.618,33.968 -26.237,53.234c-8.619,19.265 -16.604,37.77 -23.955,55.515c-7.351,17.745 -13.435,33.588 -18.252,47.53c-4.816,13.943 -7.731,23.449 -8.745,28.519Z" style="fill:#fff;fill-rule:nonzero;"/></svg>